HIERARCHY
ROOT Hips
{
	OFFSET 0.000000 1.471914 24.280096
	CHANNELS 6 Xposition Yposition Zposition Xrotation Yrotation Zrotation
	JOINT Spine
	{
		OFFSET 0.000000 0.900110 1.860670
		CHANNELS 6 Xposition Yposition Zposition Xrotation Yrotation Zrotation
		JOINT Spine1
		{
			OFFSET 0.000000 0.400320 2.270309
			CHANNELS 6 Xposition Yposition Zposition Xrotation Yrotation Zrotation
			JOINT Spine2
			{
				OFFSET 0.000000 0.200920 2.296560
				CHANNELS 6 Xposition Yposition Zposition Xrotation Yrotation Zrotation
				JOINT Spine3
				{
					OFFSET 0.000000 0.000000 2.305330
					CHANNELS 6 Xposition Yposition Zposition Xrotation Yrotation Zrotation
					JOINT Neck
					{
						OFFSET 0.000000 -0.864490 6.051487
						CHANNELS 6 Xposition Yposition Zposition Xrotation Yrotation Zrotation
						JOINT Head
						{
							OFFSET 0.000000 -0.550429 3.121674
							CHANNELS 6 Xposition Yposition Zposition Xrotation Yrotation Zrotation
							End Site
							{
								OFFSET 0.000000 0.000000 3.731750
							}
						}
					}
					JOINT RightShoulder
					{
						OFFSET -0.788280 -1.313800 4.256718
						CHANNELS 6 Xposition Yposition Zposition Xrotation Yrotation Zrotation
						JOINT RightArm
						{
							OFFSET -3.915130 0.000000 0.000000
							CHANNELS 6 Xposition Yposition Zposition Xrotation Yrotation Zrotation
							JOINT RightForeArm
							{
								OFFSET -6.914910 0.000000 0.000000
								CHANNELS 6 Xposition Yposition Zposition Xrotation Yrotation Zrotation
								JOINT RightHand
								{
									OFFSET -6.096219 0.000000 0.000000
									CHANNELS 6 Xposition Yposition Zposition Xrotation Yrotation Zrotation
									JOINT RightHandEnd
									{
										OFFSET -1.749950 0.000000 0.000000
										CHANNELS 6 Xposition Yposition Zposition Xrotation Yrotation Zrotation
										End Site
										{
											OFFSET -1.749950 0.000000 0.000000
										}
									}
									JOINT RightHandThumb1
									{
										OFFSET -0.699980 -1.166630 -0.466648
										CHANNELS 6 Xposition Yposition Zposition Xrotation Yrotation Zrotation
										End Site
										{
											OFFSET -1.690319 -0.452920 0.000000
										}
									}
								}
							}
						}
					}
					JOINT LeftShoulder
					{
						OFFSET 0.788280 -1.313800 4.256718
						CHANNELS 6 Xposition Yposition Zposition Xrotation Yrotation Zrotation
						JOINT LeftArm
						{
							OFFSET 3.915130 0.000000 0.000000
							CHANNELS 6 Xposition Yposition Zposition Xrotation Yrotation Zrotation
							JOINT LeftForeArm
							{
								OFFSET 6.914910 0.000000 0.000000
								CHANNELS 6 Xposition Yposition Zposition Xrotation Yrotation Zrotation
								JOINT LeftHand
								{
									OFFSET 6.096219 0.000000 0.000000
									CHANNELS 6 Xposition Yposition Zposition Xrotation Yrotation Zrotation
									JOINT LeftHandEnd
									{
										OFFSET 1.749950 0.000000 0.000000
										CHANNELS 6 Xposition Yposition Zposition Xrotation Yrotation Zrotation
										End Site
										{
											OFFSET 1.749950 0.000000 0.000000
										}
									}
									JOINT LeftHandThumb1
									{
										OFFSET 0.699980 -1.166630 -0.466648
										CHANNELS 6 Xposition Yposition Zposition Xrotation Yrotation Zrotation
										End Site
										{
											OFFSET 1.690319 -0.452920 0.000000
										}
									}
								}
							}
						}
					}
				}
			}
		}
	}
	JOINT RightUpLeg
	{
		OFFSET -2.338570 -0.252550 -0.551512
		CHANNELS 6 Xposition Yposition Zposition Xrotation Yrotation Zrotation
		JOINT RightLeg
		{
			OFFSET 0.000000 0.000000 -10.744959
			CHANNELS 6 Xposition Yposition Zposition Xrotation Yrotation Zrotation
			JOINT RightFoot
			{
				OFFSET 0.000000 -0.000001 -10.930849
				CHANNELS 6 Xposition Yposition Zposition Xrotation Yrotation Zrotation
				JOINT RightToeBase
				{
					OFFSET 0.000000 -4.087269 -1.487650
					CHANNELS 6 Xposition Yposition Zposition Xrotation Yrotation Zrotation
					End Site
					{
						OFFSET 0.000000 -1.891870 0.000000
					}
				}
			}
		}
	}
	JOINT LeftUpLeg
	{
		OFFSET 2.338570 -0.252550 -0.551512
		CHANNELS 6 Xposition Yposition Zposition Xrotation Yrotation Zrotation
		JOINT LeftLeg
		{
			OFFSET 0.000000 0.000000 -10.744959
			CHANNELS 6 Xposition Yposition Zposition Xrotation Yrotation Zrotation
			JOINT LeftFoot
			{
				OFFSET 0.000000 -0.000001 -10.930849
				CHANNELS 6 Xposition Yposition Zposition Xrotation Yrotation Zrotation
				JOINT LeftToeBase
				{
					OFFSET 0.000000 -4.087269 -1.487650
					CHANNELS 6 Xposition Yposition Zposition Xrotation Yrotation Zrotation
					End Site
					{
						OFFSET 0.000000 -1.891870 0.000000
					}
				}
			}
		}
	}
}
MOTION
Frames: 4
Frame Time: 0.041667
-0.000013 26.746220 34.560921 -8.095496 -19.069403 69.055296 -0.000024 0.900092 1.860712 23.142498 -6.582250 1.394552 -0.000000 0.400253 2.270329 0.000002 -0.000001 0.000012 0.000017 0.200897 2.296579 0.000001 -0.000001 0.000002 0.000034 0.000025 2.305300 -0.000001 0.000001 5.920976 -0.000018 -0.864467 6.051423 -5.817139 1.677113 176.768588 0.000027 -0.550421 3.121677 -0.000007 -0.000002 -0.000006 -0.788271 -1.313733 4.256844 -1.348904 121.025119 133.544173 -3.915133 -0.000020 -0.000000 -0.000002 -0.000006 0.000000 -6.914908 -0.000022 0.000004 0.000023 -0.000002 -62.477571 -6.096199 0.000026 0.000040 -0.000055 -0.000030 -0.000067 -1.749889 -0.000068 0.000031 -0.000003 -0.000003 -0.000003 -0.699977 -1.166617 -0.466655 -0.000010 -0.000005 -0.000006 0.788263 -1.313750 4.256788 37.375123 -115.251683 -115.510165 3.915180 0.000011 -0.000045 0.000001 -0.000004 0.000000 6.914960 -0.000069 0.000007 0.000002 -0.000002 72.500204 6.096233 0.000141 -0.000031 0.000008 0.000005 0.000015 1.749987 0.000009 0.000056 -0.000006 -0.000006 0.000001 0.699961 -1.166618 -0.466621 0.000017 -0.000003 -0.000026 -2.338597 -0.252545 -0.551484 -48.037940 -8.630802 -2.663368 0.000009 -0.000018 -10.744956 83.535454 -5.386926 -6.241190 -0.000015 0.000081 -10.930834 -0.000003 0.000001 0.000002 0.000009 -4.087235 -1.487639 0.000002 0.000002 -0.000001 2.338579 -0.252528 -0.551492 -43.124401 2.460901 -2.419053 0.000001 -0.000018 -10.744918 84.872962 -8.849436 5.071135 0.000001 0.000009 -10.930869 0.000003 0.000000 0.000007 -0.000025 -4.087202 -1.487640 -0.000001 -0.000003 -0.000006 
-0.000009 26.746212 34.560917 -7.900220 -19.006444 69.133358 -0.000024 0.900094 1.860700 22.907985 -6.349298 1.297824 -0.000004 0.400251 2.270327 0.000001 -0.000000 0.000012 0.000015 0.200898 2.296577 -0.000000 0.000001 0.000002 0.000032 0.000024 2.305312 -0.000001 -0.000001 5.896562 -0.000015 -0.864466 6.051425 -6.155442 1.988379 177.026742 0.000030 -0.550420 3.121673 -0.000007 -0.000002 0.000000 -0.788268 -1.313732 4.256844 -1.555607 120.721517 133.582791 -3.915132 -0.000024 -0.000004 -0.000002 -0.000005 0.000003 -6.914905 -0.000019 0.000004 0.000022 -0.000001 -62.697114 -6.096199 0.000032 0.000046 -0.000055 -0.000027 -0.000067 -1.749885 -0.000067 0.000041 0.000004 -0.000002 -0.000001 -0.699975 -1.166621 -0.466648 -0.000010 -0.000004 -0.000009 0.788269 -1.313748 4.256791 36.695290 -115.552034 -116.169551 3.915178 0.000014 -0.000038 0.000006 -0.000002 -0.000001 6.914952 -0.000067 0.000011 0.000005 0.000003 72.614309 6.096232 0.000139 -0.000031 0.000008 0.000009 0.000010 1.749985 0.000010 0.000053 -0.000003 -0.000006 -0.000002 0.699960 -1.166619 -0.466617 0.000018 -0.000002 -0.000030 -2.338594 -0.252545 -0.551491 -48.261529 -8.539621 -2.512398 0.000012 -0.000020 -10.744955 83.701885 -5.496147 -6.307004 -0.000014 0.000083 -10.930837 -0.000002 0.000002 0.000004 0.000009 -4.087237 -1.487636 0.000004 0.000002 0.000002 2.338581 -0.252526 -0.551496 -43.335706 2.506381 -2.280963 -0.000004 -0.000019 -10.744919 84.996793 -8.817305 4.952511 -0.000000 0.000009 -10.930871 -0.000003 -0.000001 0.000009 -0.000024 -4.087202 -1.487637 -0.000004 0.000002 -0.000001 
-0.000008 26.746212 34.560917 -7.806408 -18.886568 69.183956 -0.000026 0.900093 1.860705 22.714954 -6.244468 1.284854 -0.000005 0.400252 2.270330 0.000002 -0.000001 0.000010 0.000015 0.200898 2.296572 0.000001 -0.000000 0.000003 0.000033 0.000023 2.305312 -0.000001 -0.000000 5.872706 -0.000019 -0.864464 6.051429 -6.612013 2.062681 177.207113 0.000029 -0.550419 3.121677 -0.000008 -0.000001 -0.000004 -0.788272 -1.313731 4.256843 -1.456637 120.558180 133.462552 -3.915134 -0.000027 -0.000004 -0.000002 -0.000003 0.000007 -6.914908 -0.000021 0.000004 0.000022 -0.000003 -62.509290 -6.096194 0.000025 0.000039 -0.000055 -0.000028 -0.000064 -1.749893 -0.000058 0.000034 -0.000001 -0.000003 -0.000002 -0.699978 -1.166611 -0.466652 -0.000012 -0.000004 -0.000008 0.788265 -1.313746 4.256797 37.029860 -115.836252 -116.199112 3.915174 0.000016 -0.000046 0.000006 0.000000 -0.000000 6.914956 -0.000069 0.000008 0.000006 0.000000 72.246271 6.096231 0.000139 -0.000027 0.000006 0.000008 0.000007 1.749986 0.000010 0.000053 -0.000004 -0.000004 -0.000002 0.699959 -1.166617 -0.466617 0.000013 0.000000 -0.000030 -2.338596 -0.252548 -0.551480 -48.388024 -8.410833 -2.511924 0.000009 -0.000015 -10.744955 83.676852 -5.455532 -6.187236 -0.000011 0.000081 -10.930837 -0.000002 0.000005 0.000003 0.000010 -4.087236 -1.487638 0.000005 0.000003 0.000001 2.338576 -0.252531 -0.551485 -43.618896 2.930218 -2.290036 -0.000006 -0.000021 -10.744915 84.869847 -9.189195 5.366335 0.000002 0.000010 -10.930865 -0.000009 -0.000005 0.000007 -0.000027 -4.087204 -1.487638 0.000000 -0.000001 -0.000002 
-0.000007 26.746212 34.560913 -7.823699 -18.778106 69.262776 -0.000022 0.900094 1.860705 22.501225 -6.455059 1.335245 0.000002 0.400254 2.270326 0.000003 -0.000001 0.000010 0.000015 0.200897 2.296576 0.000001 0.000000 0.000004 0.000032 0.000025 2.305308 -0.000002 -0.000002 5.917564 -0.000017 -0.864463 6.051419 -7.037183 2.270549 177.145191 0.000031 -0.550420 3.121681 -0.000008 -0.000002 -0.000005 -0.788272 -1.313729 4.256839 -2.238346 120.103344 134.225115 -3.915136 -0.000024 -0.000004 0.000000 -0.000003 0.000008 -6.914901 -0.000023 0.000003 0.000020 -0.000005 -63.258712 -6.096196 0.000022 0.000043 -0.000056 -0.000026 -0.000063 -1.749887 -0.000060 0.000039 -0.000002 0.000001 -0.000001 -0.699977 -1.166618 -0.466651 -0.000009 -0.000004 -0.000006 0.788267 -1.313746 4.256790 37.733978 -116.046663 -115.713308 3.915173 0.000017 -0.000042 0.000010 0.000000 0.000003 6.914955 -0.000069 0.000011 0.000004 0.000004 72.191063 6.096231 0.000139 -0.000035 0.000008 0.000008 0.000010 1.749985 0.000013 0.000051 -0.000005 -0.000008 -0.000001 0.699958 -1.166621 -0.466622 0.000018 0.000001 -0.000029 -2.338594 -0.252547 -0.551484 -48.502075 -8.359103 -2.637095 0.000008 -0.000018 -10.744958 83.662933 -5.612483 -6.034371 -0.000015 0.000082 -10.930836 0.000000 0.000002 0.000002 0.000013 -4.087238 -1.487634 0.000003 0.000001 0.000002 2.338582 -0.252528 -0.551489 -43.736341 2.661486 -2.406320 -0.000002 -0.000016 -10.744918 84.943675 -9.239988 5.209825 -0.000001 0.000009 -10.930869 -0.000005 -0.000004 0.000005 -0.000027 -4.087202 -1.487640 -0.000002 0.000003 -0.000002 
